<svg width="25" height="24" viewBox="0 0 25 24" fill="none" xmlns="http://www.w3.org/2000/svg">
<mask id="mask0_9179_2646" style="mask-type:luminance" maskUnits="userSpaceOnUse" x="3" y="2" width="18" height="21">
<path fill-rule="evenodd" clip-rule="evenodd" d="M3.5 2H20.5388V22.8467H3.5V2Z" fill="white"/>
</mask>
<g mask="url(#mask0_9179_2646)">
<path fill-rule="evenodd" clip-rule="evenodd" d="M8.8418 3.5C6.2928 3.5 4.9998 4.482 4.9998 6.421V21.145C4.9998 21.239 5.0538 21.29 5.0988 21.316C5.1438 21.344 5.2148 21.364 5.2968 21.318L11.6788 17.738C11.9068 17.611 12.1858 17.61 12.4148 17.739L18.7418 21.313C18.8248 21.361 18.8958 21.339 18.9408 21.312C18.9858 21.285 19.0388 21.234 19.0388 21.14V6.604C19.0388 5.837 19.0388 3.5 15.2008 3.5H8.8418ZM5.1988 22.847C4.9038 22.847 4.6088 22.768 4.3408 22.61C3.8138 22.303 3.4998 21.754 3.4998 21.145V6.421C3.4998 3.611 5.4468 2 8.8418 2H15.2008C18.5928 2 20.5388 3.679 20.5388 6.604V21.14C20.5388 21.75 20.2248 22.299 19.6968 22.606C19.1708 22.914 18.5368 22.92 18.0048 22.62L12.0448 19.253L6.0298 22.627C5.7698 22.773 5.4848 22.847 5.1988 22.847Z" fill="#9E9E9E"/>
</g>
<path fill-rule="evenodd" clip-rule="evenodd" d="M15.6396 10.2285H8.32159C7.90759 10.2285 7.57159 9.89252 7.57159 9.47852C7.57159 9.06452 7.90759 8.72852 8.32159 8.72852H15.6396C16.0536 8.72852 16.3896 9.06452 16.3896 9.47852C16.3896 9.89252 16.0536 10.2285 15.6396 10.2285Z" fill="#9E9E9E"/>
</svg>
