<svg width="25" height="24" viewBox="0 0 25 24" fill="none" xmlns="http://www.w3.org/2000/svg">
<mask id="mask0_9179_2628" style="mask-type:luminance" maskUnits="userSpaceOnUse" x="1" y="1" width="22" height="22">
<path fill-rule="evenodd" clip-rule="evenodd" d="M1.5 1.00049H22.993V22.4943H1.5V1.00049Z" fill="white"/>
</mask>
<g mask="url(#mask0_9179_2628)">
<path fill-rule="evenodd" clip-rule="evenodd" d="M6.60841 19.6755C7.18841 19.6755 7.73541 19.8955 8.31441 20.1285C11.8614 21.7685 16.0564 21.0225 18.7894 18.2905C22.3954 14.6825 22.3954 8.81349 18.7894 5.20749C17.0434 3.46149 14.7214 2.50049 12.2494 2.50049C9.77641 2.50049 7.45341 3.46249 5.70841 5.20849C2.97441 7.94049 2.23041 12.1355 3.85541 15.6485C4.08941 16.2275 4.31541 16.7915 4.31541 17.3775C4.31541 17.9625 4.11441 18.5515 3.93741 19.0715C3.79141 19.4995 3.57041 20.1455 3.71241 20.2875C3.85141 20.4315 4.50141 20.2045 4.93041 20.0575C5.44541 19.8815 6.02941 19.6795 6.60841 19.6755ZM12.2244 22.4945C10.6964 22.4945 9.15841 22.1715 7.71941 21.5055C7.29541 21.3355 6.89841 21.1755 6.61341 21.1755C6.28541 21.1775 5.84441 21.3295 5.41841 21.4765C4.54441 21.7765 3.45641 22.1505 2.65141 21.3485C1.84941 20.5455 2.21941 19.4605 2.51741 18.5875C2.66441 18.1575 2.81541 17.7135 2.81541 17.3775C2.81541 17.1015 2.68241 16.7495 2.47841 16.2425C0.605407 12.1975 1.47141 7.32249 4.64841 4.14749C6.67641 2.11849 9.37541 1.00049 12.2484 1.00049C15.1214 1.00049 17.8214 2.11749 19.8494 4.14649C24.0414 8.33849 24.0414 15.1585 19.8494 19.3505C17.7944 21.4065 15.0274 22.4945 12.2244 22.4945Z" fill="#9E9E9E"/>
</g>
<path fill-rule="evenodd" clip-rule="evenodd" d="M16.1963 13.1631C15.6443 13.1631 15.1923 12.7161 15.1923 12.1631C15.1923 11.6101 15.6353 11.1631 16.1873 11.1631H16.1963C16.7483 11.1631 17.1963 11.6101 17.1963 12.1631C17.1963 12.7161 16.7483 13.1631 16.1963 13.1631Z" fill="#9E9E9E"/>
<path fill-rule="evenodd" clip-rule="evenodd" d="M12.1875 13.1631C11.6355 13.1631 11.1835 12.7161 11.1835 12.1631C11.1835 11.6101 11.6255 11.1631 12.1785 11.1631H12.1875C12.7395 11.1631 13.1875 11.6101 13.1875 12.1631C13.1875 12.7161 12.7395 13.1631 12.1875 13.1631Z" fill="#9E9E9E"/>
<path fill-rule="evenodd" clip-rule="evenodd" d="M8.17829 13.1631C7.62629 13.1631 7.17429 12.7161 7.17429 12.1631C7.17429 11.6101 7.61729 11.1631 8.16929 11.1631H8.17829C8.73029 11.1631 9.17829 11.6101 9.17829 12.1631C9.17829 12.7161 8.73029 13.1631 8.17829 13.1631Z" fill="#9E9E9E"/>
</svg>
