<svg width="26" height="26" viewBox="0 0 26 26" fill="none" xmlns="http://www.w3.org/2000/svg">
<path fill-rule="evenodd" clip-rule="evenodd" d="M17.4847 2.21877C18.9831 2.12512 20.4608 2.64542 21.5742 3.66519C22.594 4.77863 23.1143 6.25626 23.0311 7.76512V17.4842C23.1247 18.9931 22.594 20.4707 21.5846 21.5842C20.4712 22.6039 18.9831 23.1242 17.4847 23.0306H7.76548C6.25662 23.1242 4.77897 22.6039 3.66553 21.5842C2.64574 20.4707 2.12544 18.9931 2.21909 17.4842V7.76512C2.12544 6.25626 2.64574 4.77863 3.66553 3.66519C4.77897 2.64542 6.25662 2.12512 7.76548 2.21877H17.4847ZM11.5637 17.6715L18.5669 10.6476C19.2017 10.0024 19.2017 8.9618 18.5669 8.32704L17.2141 6.97427C16.5689 6.3291 15.5283 6.3291 14.8832 6.97427L14.186 7.68187C14.0819 7.78593 14.0819 7.96283 14.186 8.06689C14.186 8.06689 15.8405 9.71102 15.8717 9.75265C15.9862 9.87752 16.0591 10.044 16.0591 10.2313C16.0591 10.6059 15.7573 10.9181 15.3723 10.9181C15.1954 10.9181 15.0289 10.8453 14.9144 10.7308L13.1766 9.00342C13.0933 8.92017 12.9477 8.92017 12.8644 9.00342L7.90076 13.967C7.55736 14.3104 7.35965 14.7683 7.34924 15.2574L7.28681 17.7236C7.28681 17.8588 7.32843 17.9837 7.42209 18.0774C7.51574 18.171 7.64061 18.223 7.77589 18.223H10.2213C10.7208 18.223 11.1995 18.0253 11.5637 17.6715Z" fill="#61D180"/>
</svg>
