<svg width="25" height="24" viewBox="0 0 25 24" fill="none" xmlns="http://www.w3.org/2000/svg">
<g id="Frame">
<path id="Vector" d="M2.50635 7.00635H5.37138C6.09809 7.00635 6.79503 6.64666 7.3089 6.0064C8.04278 5.092 9.1283 4.77271 10.1129 5.18164L11.5063 5.76037M2.50635 15.9731H4.12703C5.28652 15.9731 5.86626 15.9731 6.41447 16.1276C6.44112 16.1351 6.46769 16.1429 6.49417 16.1509C7.03894 16.3164 7.52131 16.6273 8.48606 17.2491C10.3742 18.466 11.3183 19.0744 12.347 19.0003C12.3955 18.9968 12.4439 18.9922 12.4922 18.9865C13.5159 18.8641 14.3182 18.0885 15.9229 16.5371L17.5063 15.0063" stroke="#9E9E9E" stroke-width="1.5" stroke-linecap="round"/>
<path id="Vector_2" d="M22.5 7.24019H19.9832C18.9174 7.24019 18.1649 6.66103 17.4003 5.88893C16.9051 5.38882 16.2731 5.09407 15.6088 5.05348C14.866 5.0081 14.0053 4.9442 13.284 5.14236C12.4811 5.36291 11.951 5.96698 11.3902 6.59831L9.94309 8.22746C9.3523 8.89256 9.3523 9.9709 9.94309 10.636C10.453 11.21 11.2519 11.2991 11.8519 10.8487C12.2837 10.5247 12.7743 10.0014 13.2831 9.8366C13.8557 9.65111 14.2109 10.0678 14.5354 10.5062L16.8556 13.6408C17.7167 14.804 18.1472 15.3857 18.7358 15.696C19.3244 16.0064 19.9969 16.0064 21.342 16.0064H22.5" stroke="#9E9E9E" stroke-width="1.5" stroke-linecap="round"/>
</g>
</svg>
