<svg width="25" height="24" viewBox="0 0 25 24" fill="none" xmlns="http://www.w3.org/2000/svg">
<g id="vuesax/linear/message-search">
<g id="message-search">
<g id="Group">
<path id="Vector" d="M13.7 21.3702C13.04 22.2502 11.96 22.2502 11.3 21.3702L9.79999 19.3702C9.62999 19.1502 9.27 18.9702 9 18.9702H8.5C4.5 18.9702 2.5 17.9702 2.5 12.9702V7.97021C2.5 3.97021 4.5 1.97021 8.5 1.97021H16.5C20.5 1.97021 22.5 3.97021 22.5 7.97021V12.9702" stroke="#9E9E9E" stroke-width="1.5" stroke-miterlimit="10" stroke-linecap="round" stroke-linejoin="round"/>
</g>
<g id="Group_2">
<path id="Vector_2" d="M18.7 21.4C20.4673 21.4 21.9 19.9673 21.9 18.2C21.9 16.4327 20.4673 15 18.7 15C16.9327 15 15.5 16.4327 15.5 18.2C15.5 19.9673 16.9327 21.4 18.7 21.4Z" stroke="#9E9E9E" stroke-width="1.5" stroke-linecap="round" stroke-linejoin="round"/>
<path id="Vector_3" d="M22.5 22L21.5 21" stroke="#9E9E9E" stroke-width="1.5" stroke-linecap="round" stroke-linejoin="round"/>
</g>
<path id="Vector_4" d="M16.4965 11H16.5054" stroke="#9E9E9E" stroke-width="2" stroke-linecap="round" stroke-linejoin="round"/>
<path id="Vector_5" d="M12.4955 11H12.5045" stroke="#9E9E9E" stroke-width="2" stroke-linecap="round" stroke-linejoin="round"/>
<path id="Vector_6" d="M8.49451 11H8.50349" stroke="#9E9E9E" stroke-width="2" stroke-linecap="round" stroke-linejoin="round"/>
</g>
</g>
</svg>
