<svg width="22" height="22" viewBox="0 0 22 22" fill="none" xmlns="http://www.w3.org/2000/svg">
<g id="Chat">
<g id="Group 3">
<mask id="mask0_9513_7030" style="mask-type:luminance" maskUnits="userSpaceOnUse" x="0" y="0" width="22" height="22">
<path id="Clip 2" fill-rule="evenodd" clip-rule="evenodd" d="M0.5 0.000488281H21.993V21.4943H0.5V0.000488281Z" fill="white"/>
</mask>
<g mask="url(#mask0_9513_7030)">
<path id="Fill 1" fill-rule="evenodd" clip-rule="evenodd" d="M5.60844 18.6755C6.18844 18.6755 6.73544 18.8955 7.31444 19.1285C10.8614 20.7685 15.0564 20.0225 17.7894 17.2905C21.3954 13.6825 21.3954 7.81349 17.7894 4.20749C16.0434 2.46149 13.7214 1.50049 11.2494 1.50049C8.77644 1.50049 6.45344 2.46249 4.70844 4.20849C1.97444 6.94049 1.23044 11.1355 2.85544 14.6485C3.08944 15.2275 3.31544 15.7915 3.31544 16.3775C3.31544 16.9625 3.11444 17.5515 2.93744 18.0715C2.79144 18.4995 2.57044 19.1455 2.71244 19.2875C2.85144 19.4315 3.50144 19.2045 3.93044 19.0575C4.44544 18.8815 5.02944 18.6795 5.60844 18.6755ZM11.2244 21.4945C9.69644 21.4945 8.15844 21.1715 6.71944 20.5055C6.29544 20.3355 5.89844 20.1755 5.61344 20.1755C5.28544 20.1775 4.84444 20.3295 4.41844 20.4765C3.54444 20.7765 2.45644 21.1505 1.65144 20.3485C0.849437 19.5455 1.21944 18.4605 1.51744 17.5875C1.66444 17.1575 1.81544 16.7135 1.81544 16.3775C1.81544 16.1015 1.68244 15.7495 1.47844 15.2425C-0.394563 11.1975 0.471437 6.32249 3.64844 3.14749C5.67644 1.11849 8.37544 0.000488281 11.2484 0.000488281C14.1214 0.000488281 16.8214 1.11749 18.8494 3.14649C23.0414 7.33849 23.0414 14.1585 18.8494 18.3505C16.7944 20.4065 14.0274 21.4945 11.2244 21.4945Z" fill="#9E9E9E"/>
</g>
</g>
<path id="Fill 4" fill-rule="evenodd" clip-rule="evenodd" d="M15.1964 12.1631C14.6444 12.1631 14.1924 11.7161 14.1924 11.1631C14.1924 10.6101 14.6354 10.1631 15.1874 10.1631H15.1964C15.7484 10.1631 16.1964 10.6101 16.1964 11.1631C16.1964 11.7161 15.7484 12.1631 15.1964 12.1631Z" fill="#9E9E9E"/>
<path id="Fill 6" fill-rule="evenodd" clip-rule="evenodd" d="M11.1876 12.1631C10.6356 12.1631 10.1836 11.7161 10.1836 11.1631C10.1836 10.6101 10.6256 10.1631 11.1786 10.1631H11.1876C11.7396 10.1631 12.1876 10.6101 12.1876 11.1631C12.1876 11.7161 11.7396 12.1631 11.1876 12.1631Z" fill="#9E9E9E"/>
<path id="Fill 8" fill-rule="evenodd" clip-rule="evenodd" d="M7.17832 12.1631C6.62632 12.1631 6.17432 11.7161 6.17432 11.1631C6.17432 10.6101 6.61732 10.1631 7.16932 10.1631H7.17832C7.73032 10.1631 8.17832 10.6101 8.17832 11.1631C8.17832 11.7161 7.73032 12.1631 7.17832 12.1631Z" fill="#9E9E9E"/>
</g>
</svg>
