<svg width="20" height="20" viewBox="0 0 20 20" fill="none" xmlns="http://www.w3.org/2000/svg">
<g id="bi:google" clip-path="url(#clip0_6124_11662)">
<path id="Vector" d="M19.4312 8.19816C19.5478 8.86936 19.606 9.54941 19.605 10.2307C19.605 13.2732 18.5175 15.8457 16.625 17.5869H16.6275C14.9725 19.1157 12.6975 20.0007 10 20.0007C7.34783 20.0007 4.8043 18.9471 2.92893 17.0717C1.05357 15.1964 0 12.6528 0 10.0007C0 7.3485 1.05357 4.80496 2.92893 2.92959C4.8043 1.05423 7.34783 0.000659858 10 0.000659858C12.4824 -0.0284131 14.8798 0.904201 16.69 2.60316L13.835 5.45816C12.803 4.47438 11.4256 3.93565 10 3.95816C7.39125 3.95816 5.175 5.71816 4.385 8.08816C3.96613 9.33004 3.96613 10.675 4.385 11.9169H4.38875C5.1825 14.2832 7.395 16.0432 10.0037 16.0432C11.3512 16.0432 12.5087 15.6982 13.4062 15.0882H13.4025C13.9236 14.7429 14.3694 14.2957 14.7129 13.7734C15.0565 13.2511 15.2906 12.6647 15.4012 12.0494H10V8.19941L19.4312 8.19816Z" fill="white"/>
</g>
<defs>
<clipPath id="clip0_6124_11662">
<rect width="20" height="20" fill="white"/>
</clipPath>
</defs>
</svg>
