<?xml version="1.0" encoding="UTF-8"?>
<svg id="Layer_2" data-name="Layer 2" xmlns="http://www.w3.org/2000/svg" viewBox="0 0 1738.95 446.87">
  <defs>
    <style>
      .cls-1 {
        fill: #fff;
        stroke-width: 0px;
      }
    </style>
  </defs>
  <g id="Layer_1-2" data-name="Layer 1">
    <circle class="cls-1" cx="326.15" cy="39.8" r="39.79"/>
    <circle class="cls-1" cx="1224.41" cy="39.8" r="39.8"/>
    <path class="cls-1" d="M943.23,137.8c.13.59.39.66.77.19,13.93-17.05,31.48-27.88,52.64-32.5,17.01-3.72,34.27-3.91,51.78-.58,35.04,6.66,64.61,31.99,81.64,62.41,9.34,16.69,14.7,35.52,16.08,56.5,1.19,18.01-.38,34.86-4.7,50.57-7.02,25.5-21.64,47.61-41.81,64.99-18.77,16.18-40.66,25.31-65.65,27.38-12.29,1.02-24.87.11-37.74-2.72-20.83-4.59-38.21-15.34-52.12-32.25-.62-.75-.93-.64-.92.33l.03,27.11c0,.35-.29.63-.64.63h-62.87c-.52.01-.95-.42-.95-.95V10.3c-.01-.5.24-.75.75-.75l62.97.02c.4,0,.73.33.73.74-.02,40.97-.02,82.03.01,123.17,0,1.42-.3,2.98,0,4.32ZM1042.27,170.25c-4.24-2.03-8.9-3.51-13.97-4.42-7.61-1.37-14.95-1.8-22-1.29-7.44.55-13.88,1.82-19.31,3.82-13.1,4.81-23.74,13.15-31.93,25.01-12.01,17.38-14.41,40.74-9.58,61.19,5.13,21.77,21.35,39.64,42.25,46.92,3.55,1.23,7.56,2.2,12.03,2.9,10.55,1.63,20.73,1.15,30.17-.94,25.23-5.6,44.76-25.59,50.23-51.24.92-4.31,1.44-8.95,1.55-13.92.15-6.49-.01-11.39-.49-14.72-3.58-24.82-16.56-42.59-38.95-53.31Z"/>
    <path class="cls-1" d="M1674.17,331.37c-.19-.07-.36-.03-.49.13-13.99,17.25-31.78,28.16-53.35,32.75-12.87,2.73-25.01,3.57-36.4,2.5-7.05-.66-14.55-1.73-21.46-3.58-42.72-11.44-76.59-49.45-87.01-91.61-1.39-5.64-2.79-11.7-3.36-17.59-1.39-14.17-1.3-27.79.25-40.86.29-2.45,1.26-7.19,2.93-14.2,10.57-44.61,47.6-84.58,93.33-93.87,15.13-3.08,30.65-3.3,46.54-.67,23.99,3.97,43.35,15.08,58.08,33.31.73.91,1.1.78,1.1-.39V10.27c.01-.48.25-.72.72-.72l63.17.02c.4,0,.72.32.72.72v349.08c.01.28-.21.5-.49.5h-63.48c-.36-.01-.65-.3-.65-.66l.03-27.58c0-.12-.07-.22-.18-.26ZM1638.65,297.71c16.45-8.95,27.39-22.5,32.83-40.63,2.84-9.47,3.3-19.94,2.61-29.7-1.83-26.04-17.64-48.81-41.6-58.3-5.55-2.21-11.75-3.65-18.6-4.33-7.24-.71-14.73-.48-22.47.71-24.14,3.7-44.12,21.36-51.89,44.19-.49,1.46-.9,2.93-1.21,4.42-.82,3.92-2.03,7.54-2.35,11.61-.47,5.82-.48,11.54-.05,17.17.37,4.74,1.49,10.16,3.38,16.27,7.41,23.99,28.67,41.69,53.45,45.24,4.57.66,8.56,1.01,11.95,1.05,5.37.07,11.48-.6,18.35-2,5.47-1.11,10.67-3.01,15.6-5.7Z"/>
    <path class="cls-1" d="M113.83,406.78c-.43.81-.91,1.54-1.42,2.19-8.64,11.13-18.31,23.53-29.01,37.21-.62.79-.93.69-.93-.31l.02-83.22c0-1.29-1.04-2.33-2.32-2.33H.5c-.28,0-.5-.22-.5-.5V12.92c0-.42.22-.63.65-.63l81.25-.07c.33,0,.59.26.59.59v69.29c0,.54.44.98.99.98.12,0,.24-.02.35-.06,1.38-.52,2.51-1.16,3.99-1.47,7.62-1.6,13.7-2.48,18.24-2.65,7.25-.27,15.54-.43,22.62.56,13.37,1.86,25.58,5.59,36.61,11.18,32.39,16.41,55.19,46.69,61.59,82.4,1.42,7.95,1.58,16.73,1.59,24.84,0,54.55,0,108.52,0,161.89,0,.31-.25.56-.56.56-26.24-.02-52.21-.01-77.91.03-.98,0-1.93.07-2.84.22-.7.11-1.21.72-1.21,1.44.15,25.02-.15,50.08-.91,75.18-.08,2.82-.45,5.64-.16,8.44.15,1.48-.22,1.62-1.11.43l-29.44-39.33c-.19-.25-.35-.24-.5.04ZM147.68,216.51c-3.3-4.12-1.38-8.85,3.03-11.06,3.65-1.83,7.2-3.62,10.66-5.35.76-.39,1.56-.69,2.41-.91.75-.2.82-.54.19-1.01-5.65-4.23-11.18-8.29-16.59-12.18-1.5-1.07-2.56-2.37-3.17-3.9-4.37-10.77-12.24-17.61-23.63-20.51-5.28-1.34-10.73-.97-16.34,1.11-10.28,3.81-17.14,10.82-20.58,21.01-.82,2.42-1.23,5.36-1.22,8.82.09,55.69.09,111.09.02,166.2,0,1.11.55,1.67,1.67,1.67,19.23-.03,39.27-.07,60.13-.11,1.23,0,2.44-.22,3.24-1.24,10.68-13.47,18.02-28.52,22.01-45.13.98-4.09,1.35-8.11,2.12-12.2.57-3.04.9-6.04,1-9.01.93-28.87-7.38-54.27-24.95-76.2Z"/>
    <path class="cls-1" d="M642.33,262.32c.31.5.54,1.03.71,1.58,6.05,20,19.96,34.71,39.8,40.4,3.12.89,5.68,1.89,8.69,2.33,5.16.76,9.88,1.3,14.16,1.61,9.77.71,19.2-.04,28.27-2.23,14.13-3.43,25.54-10.68,34.23-21.76.41-.52,1.13-.66,1.7-.33l50.82,29.31c.27.15.31.36.13.61-20.07,28.47-47.2,45.47-81.39,51.01-15.43,2.5-30.43,2.99-45.02,1.46-7.39-.78-14.15-1.85-20.26-3.2-21.06-4.68-39.31-13.65-54.75-26.91-21.73-18.68-35.59-41.8-41.58-69.36-3.69-16.96-4.31-34.76-1.88-53.4,4.23-32.36,20.14-60.84,45.32-81.92,13.33-11.17,28.23-19.02,44.69-23.55,20.33-5.6,40.99-6.88,62-3.85,25.41,3.67,47.27,14.43,65.58,32.28,15.89,15.49,27.08,33.51,33.57,54.04,1.73,5.47,2.72,11.04,4.1,16.63.47,1.94.81,4.11,1.02,6.52.57,6.85,1.37,13.58,1.28,20.48-.11,8.82-.81,17.67-2.12,26.56-.05.33-.23.52-.56.58-.83.15-1.68.23-2.57.23-63.03,0-124.84,0-185.44-.02-.33,0-.59.27-.59.59,0,.11.03.22.09.31ZM644.39,200.91c-1.12,2.99-2.12,6-3,9.05-.16.56.16,1.14.71,1.3.09.03.19.04.29.04,40.31-.03,80.73-.04,121.28-.03,1.5,0,2.91.2,4.35.17.3-.01.54-.26.53-.56,0,0,0-.01,0-.02-.1-1.56-.39-3.13-.87-4.72-5.02-16.59-13.34-29.24-29.12-37.63-10.11-5.37-20.92-8-32.42-7.89-11.19.11-21.1,2.08-29.75,5.9-15.28,6.75-25.95,18.22-32,34.39Z"/>
    <path class="cls-1" d="M484.11,150.85c1.19-1.55,1.42-3.32,2.23-5.01,6.69-14.01,17.08-24.54,31.19-31.59,13.09-6.53,26.96-9.76,41.61-9.69.31,0,.56.25.56.56l.03,70.93c0,.43-.21.62-.64.58-10.31-.95-20.47-.71-30.63,2.15-19.86,5.59-35.89,17.44-41.9,38.09-1.71,5.88-2.75,11.99-3.12,18.33-.03.55-.04,6.65-.05,18.3-.03,35.13-.04,70.4-.03,105.81,0,.31-.25.56-.56.56h-63.3c-.44-.01-.66-.23-.66-.67V110.51c0-.47.24-.71.72-.71h63.25c.31,0,.57.27.57.58h0l.07,40.24c0,.71.22.79.66.23Z"/>
    <path class="cls-1" d="M1381.26,150.75c1.05-1.05.9-2.42,1.45-3.64,6.78-14.95,17.72-26.07,32.82-33.37,12.65-6.11,26.09-9.19,40.33-9.22.41,0,.61.2.61.6v71.17c0,.29-.23.52-.52.51-.02,0-.04,0-.06,0-14.59-1.98-28.59.1-42,6.24-14.97,6.85-25.69,17.73-30.19,33.19-2.09,7.19-3.14,14.1-3.15,20.73-.02,39.67-.02,80.46,0,122.37,0,.3-.25.55-.55.55h0l-63.47-.02c-.38,0-.68-.3-.68-.68h0c-.11-82.53-.09-162.48.04-239.85,0-2.75.04-5.66.1-8.72,0-.52.27-.78.8-.79l62.94-.02c.51,0,.76.25.76.76l.13,39.93c0,.61.21.69.64.26Z"/>
    <rect class="cls-1" x="293.95" y="109.81" width="64.52" height="250.06" rx=".51" ry=".51"/>
    <rect class="cls-1" x="1192.2" y="109.81" width="64.42" height="250.06" rx=".53" ry=".53"/>
    <circle class="cls-1" cx="119.81" cy="190.36" r="7.22"/>
  </g>
</svg>