<svg width="92" height="24" viewBox="0 0 92 24" fill="none" xmlns="http://www.w3.org/2000/svg">
<g clip-path="url(#clip0_8918_4485)">
<path d="M56.6842 6.07133C56.6842 6.07133 56.6789 6.07133 56.6735 6.0686C56.6762 6.0686 56.6816 6.0686 56.6842 6.07133C56.1645 5.77938 55.6126 5.61021 55.0152 5.61567C55.0152 5.61567 55.0152 5.61567 55.0125 5.61567C54.4284 5.51471 53.8417 5.542 53.2577 5.62112C52.0628 5.77938 51.0287 6.26778 50.2008 7.17365C50.1312 7.25277 50.0776 7.39738 49.9651 7.35919C49.815 7.3128 49.8901 7.15182 49.8901 7.04541C49.8847 4.99902 49.882 2.95264 49.8927 0.906252C49.8954 0.622487 49.8177 0.526989 49.5311 0.532446C48.6657 0.548817 47.7977 0.537903 46.9297 0.537903C46.5117 0.537903 46.5117 0.540632 46.5117 0.960823V18.9799C46.5117 19.0345 46.5171 19.0891 46.5117 19.1436C46.4956 19.3183 46.5573 19.3974 46.7448 19.3974C47.7093 19.3892 48.6711 19.3892 49.6355 19.3974C49.8365 19.4001 49.8954 19.3183 49.8901 19.1273C49.8793 18.8326 49.8847 18.5379 49.8901 18.246C49.8927 18.1559 49.8392 18.0277 49.9517 17.9813C50.0615 17.9404 50.1124 18.0604 50.174 18.1314C50.592 18.6061 51.0742 19.0045 51.6556 19.2528C53.5899 20.0768 55.484 19.9758 57.3219 18.9363C57.705 18.7316 58.0291 18.4424 58.356 18.1586C58.6293 17.8558 58.9293 17.5693 59.1758 17.2473C60.0224 16.1423 60.5019 14.8953 60.6252 13.4874C60.7082 12.5243 60.6788 11.572 60.4269 10.6498C59.8616 8.56246 58.6185 7.01812 56.6842 6.07133ZM54.5838 16.3333C52.2986 16.9281 50.2089 15.6075 49.941 13.1955C49.8204 12.0904 50.0187 11.0618 50.7393 10.175C51.5859 9.12999 52.6951 8.8053 53.9757 8.89807C55.8966 9.03995 57.2951 10.6743 57.2468 12.6825C57.2442 14.5024 56.2984 15.8858 54.5838 16.3333Z" fill="#023020"/>
<path d="M12.0826 10.5461C12.0852 9.1218 11.7102 7.82576 10.8475 6.69615C9.30435 4.67433 7.0298 3.92671 4.66952 4.42603C4.38018 4.48606 4.35338 4.43694 4.35606 4.18046C4.36678 3.13544 4.35338 2.09042 4.36678 1.0454C4.36946 0.772552 4.27837 0.690696 4.01582 0.693425C2.81559 0.704339 1.61803 0.698882 0.4178 0.698882C0.139174 0.698882 -0.000138646 0.842584 -0.000138646 1.12999V18.9936C-0.000138646 19.0481 0.00254045 19.1027 -0.000138646 19.1573C-0.0162132 19.3346 0.0507641 19.411 0.235621 19.411C1.61535 19.4028 2.99509 19.4001 4.37482 19.3947V19.3346C4.49806 19.1846 4.46323 19.0017 4.46323 18.8326C4.46591 16.0468 4.46591 13.2582 4.46323 10.4724C4.46323 10.0659 4.5436 9.69479 4.81687 9.38374C5.56165 8.5379 6.66276 8.57337 7.31378 9.50925C7.59241 9.90761 7.88979 10.2596 8.28629 10.527C8.46579 10.647 8.46311 10.7262 8.26218 10.8353C7.50935 11.2364 7.47721 11.3646 7.9648 12.0631C8.59439 12.9663 8.94267 13.9786 9.0284 15.0672C9.11949 16.2077 8.85158 17.2937 8.35059 18.3169C8.29433 18.4315 8.21128 18.5379 8.22735 18.6798C8.14698 18.8189 8.06393 18.9581 7.98355 19.0972C7.93533 19.1791 7.82013 19.25 7.86567 19.3483C7.92193 19.4629 8.05857 19.4056 8.15769 19.4056C9.34721 19.4083 10.5367 19.4001 11.7236 19.4138C12.0156 19.4192 12.0826 19.3128 12.0826 19.0372C12.0745 16.205 12.0718 13.3756 12.0799 10.5461H12.0826Z" fill="#023020"/>
<path d="M91.6867 0.546009C90.7999 0.559651 89.9104 0.551466 89.021 0.551466C88.6245 0.551466 88.6218 0.551466 88.6218 0.971657V6.8134C88.6218 6.93346 88.6245 7.05078 88.6057 7.17084C88.5763 7.37002 88.4825 7.33455 88.37 7.24178C88.1154 6.9089 87.7725 6.67425 87.4591 6.40685C87.0599 6.14765 86.6419 5.92936 86.1785 5.80931C85.6132 5.63741 85.0291 5.56647 84.4424 5.55283C83.277 5.52282 82.1866 5.81477 81.1739 6.40413C80.9408 6.52964 80.7345 6.69608 80.5283 6.86252C80.113 7.22268 79.7218 7.6074 79.3736 8.03578C79.1566 8.30317 78.9637 8.58421 78.7922 8.88434C78.7869 8.90344 78.7842 8.928 78.7761 8.9471C77.6911 10.9471 77.5813 13.0371 78.2376 15.1872C78.5832 16.3223 79.2584 17.2554 80.0782 18.0876C80.1559 18.2077 80.2818 18.2759 80.3836 18.3659C80.9033 18.8189 81.474 19.1845 82.1304 19.4C82.626 19.5747 83.1323 19.6893 83.6548 19.7466C84.9943 19.8884 86.2481 19.6702 87.4055 18.9471C87.8449 18.7179 88.1449 18.3086 88.5548 17.9594C88.662 18.3659 88.6191 18.7152 88.6164 19.0562C88.6164 19.2991 88.6995 19.3727 88.9352 19.37C89.8569 19.3591 90.7758 19.3564 91.6974 19.37C91.9412 19.3755 91.9975 19.2991 91.9975 19.059C91.9921 12.988 91.9921 6.91709 92.0001 0.846145C92.0001 0.589665 91.9144 0.54328 91.6867 0.546009ZM88.5414 13.1108C88.5146 13.4 88.3994 13.6783 88.4289 13.9757C88.2816 14.044 88.2923 14.1749 88.3003 14.3032C87.9199 15.1818 87.293 15.8066 86.4357 16.1968C86.291 16.194 86.1651 16.2404 86.0499 16.3277C84.0352 16.8189 82.1089 15.9785 81.482 14.0167C80.8444 12.0194 81.5597 9.95392 83.4324 9.1763C85.2944 8.40413 87.6145 9.00986 88.4289 11.3646C88.4209 11.4928 88.4289 11.621 88.4557 11.752C88.5468 12.1995 88.5816 12.6524 88.5414 13.1108Z" fill="#023020"/>
<path d="M39.1657 5.77122C37.7244 5.39469 36.2696 5.44653 34.8738 5.96768C32.5644 6.82989 31.1365 8.52156 30.5739 10.9581C30.3542 11.9131 30.3569 12.8763 30.4667 13.8449C30.5471 14.3087 30.6248 14.7726 30.7936 15.2146C30.8364 15.3265 30.8766 15.4383 30.9222 15.5475C31.6214 17.1982 32.76 18.4097 34.3809 19.1409C34.839 19.3947 35.3266 19.5584 35.849 19.5993C35.8517 19.5993 35.857 19.5993 35.8597 19.6021C36.918 19.8394 37.9789 19.8504 39.0452 19.6839C40.6526 19.4329 41.9922 18.6935 43.0531 17.4356C43.171 17.3428 43.2433 17.2119 43.3344 17.0946C43.4362 16.9663 43.4362 16.8681 43.2647 16.7699C43.0477 16.6443 42.8173 16.5352 42.6057 16.3961C42.0484 16.0741 41.4858 15.7658 40.9366 15.4302C40.7384 15.3074 40.6258 15.3428 40.4865 15.512C40.2052 15.8449 39.8623 16.1014 39.4604 16.2787C38.5683 16.6689 37.6494 16.6989 36.6983 16.5407C35.4525 16.3333 34.5738 15.6839 34.0996 14.4916C33.9602 14.1423 33.987 14.1014 34.3514 14.1014H43.3451C43.9559 14.1014 43.9586 14.1014 44.0363 13.4956C44.2131 12.0932 44.0363 10.7371 43.4416 9.46017C42.5655 7.58296 41.167 6.29237 39.163 5.77122H39.1657ZM40.3392 11.4192H34.3032C33.9093 11.4192 33.9201 11.4138 34.0272 11.0454C34.5738 9.13821 36.4572 8.40151 38.1637 8.77532C39.4122 9.04817 40.2293 9.80397 40.5964 11.0564C40.6901 11.3756 40.6714 11.4165 40.3392 11.4192Z" fill="#023020"/>
<path d="M76.8066 5.66992C75.727 5.73268 74.7571 6.06556 73.9534 6.82681C73.5917 7.1706 73.3399 7.59079 73.0613 8.0219C73.0613 7.44073 73.0506 6.85682 73.0666 6.27565C73.072 6.02736 73.0077 5.92913 72.7451 5.93459C71.8128 5.95096 70.8805 5.95096 69.9508 5.93459C69.6722 5.92913 69.6133 6.041 69.6133 6.30021C69.6186 10.5458 69.6213 14.7913 69.6133 19.0396C69.6133 19.3398 69.7204 19.4053 69.9884 19.3998C70.8671 19.3862 71.7432 19.3943 72.6219 19.3943C72.9166 19.3943 73.0648 19.2488 73.0666 18.9578C73.0666 16.8459 73.0479 14.734 73.0773 12.6222C73.0907 11.5199 73.5381 10.6276 74.5107 10.0546C75.2179 9.63718 75.9788 9.47347 76.7906 9.53077C76.9969 9.54441 77.0772 9.48711 77.0772 9.2661C77.0692 8.1556 77.0692 7.04509 77.0772 5.93459C77.0772 5.73813 77.0156 5.66174 76.8174 5.67265L76.8066 5.66992Z" fill="#023020"/>
<path d="M29.6145 6.46609C29.6145 5.85854 29.3198 5.6157 28.7304 5.73758C28.1196 5.81943 27.5409 5.98587 27.0533 6.38969C26.4264 6.75531 25.987 7.28464 25.7111 7.96131C25.5396 7.93949 25.5932 7.80306 25.5932 7.70756C25.5878 7.21916 25.5798 6.72803 25.5932 6.23962C25.6012 5.99133 25.5128 5.92311 25.2797 5.92584C24.3367 5.93676 23.3963 5.93949 22.4533 5.92584C22.172 5.92039 22.1157 6.03771 22.1157 6.29419C22.1211 10.5398 22.1238 14.7826 22.1157 19.0282C22.1157 19.3447 22.2256 19.4129 22.5069 19.4074C23.4178 19.3938 24.326 19.3911 25.2369 19.4074C25.5208 19.4129 25.5985 19.3256 25.5959 19.0391C25.5851 16.9927 25.5905 14.9463 25.5905 12.8999C25.5905 12.0732 25.7888 11.3119 26.2951 10.6489C26.5711 10.4279 26.8497 10.2069 27.1256 9.9886C27.2944 9.92039 27.4418 9.7976 27.632 9.78669C27.8034 9.65026 28.0446 9.72666 28.2187 9.59296C28.5536 9.51111 28.8992 9.49747 29.2367 9.53294C29.5636 9.56568 29.6306 9.43744 29.6252 9.13457C29.6091 8.24781 29.6199 7.35831 29.6199 6.46882L29.6145 6.46609Z" fill="#023020"/>
<path d="M18.9651 12.7044C18.9651 10.5598 18.9625 8.41522 18.9705 6.27334C18.9705 6.02232 18.9089 5.93228 18.649 5.93773C17.7167 5.95137 16.787 5.95137 15.8547 5.93773C15.6216 5.935 15.5386 6.00049 15.5386 6.24878C15.5439 10.5271 15.5439 14.8027 15.5386 19.081C15.5386 19.3211 15.6029 19.4029 15.8467 19.4002C16.7683 19.3866 17.6872 19.3838 18.6088 19.4002C18.8874 19.4057 18.9732 19.332 18.9732 19.0373C18.9598 16.9255 18.9651 14.8136 18.9651 12.7017V12.7044Z" fill="#023020"/>
<path d="M66.1389 5.93479C65.2387 5.94843 64.3412 5.95389 63.441 5.93479C63.149 5.92933 63.0874 6.02483 63.0874 6.30587C63.0981 8.42865 63.0928 10.5514 63.0928 12.6715C63.0928 14.7943 63.0981 16.9171 63.0874 19.0371C63.0874 19.3291 63.1678 19.4055 63.4491 19.4C64.3466 19.3836 65.2467 19.3836 66.1469 19.4C66.4282 19.4055 66.514 19.3209 66.514 19.0317C66.5059 14.7861 66.5059 10.5432 66.514 6.29768C66.514 6.00027 66.4095 5.93206 66.1389 5.93752V5.93479Z" fill="#023020"/>
<path d="M65.6161 0.191044C65.0588 -0.0627078 64.5043 -0.0681648 63.947 0.193772C62.9611 0.698547 62.4414 1.83634 62.7736 2.79677C63.0415 3.57713 63.5693 4.10373 64.3435 4.26744C65.0963 4.4257 65.8063 4.24834 66.3287 3.5935C66.4948 3.48163 66.6127 3.33429 66.6529 3.12965C66.9449 2.65762 66.9637 2.14466 66.827 1.62897C66.6502 0.960485 66.2082 0.507551 65.6161 0.188315V0.191044Z" fill="#023020"/>
<path d="M18.3198 0.321805C18.2474 0.250863 18.1456 0.239949 18.0626 0.190836C18.0197 0.160823 17.9769 0.122623 17.926 0.108981C16.4632 -0.283925 15.4022 0.665597 15.1745 1.75973C15.1558 2.19902 15.1317 2.63831 15.3085 3.0585C15.5576 3.57146 15.9461 3.93981 16.4605 4.17447C16.6212 4.26451 16.8061 4.25086 16.9749 4.30543C17.0606 4.30543 17.1463 4.30543 17.2321 4.30543C18.285 4.30543 19.1476 3.58238 19.3218 2.52644C19.4798 1.56874 19.0592 0.867507 18.3225 0.321805H18.3198Z" fill="#023020"/>
<path d="M4.37744 19.3974H4.38033C4.38033 19.3974 4.38033 19.3945 4.38033 19.3916V19.3887V19.3945L4.37744 19.3974Z" fill="#023020"/>
<path d="M4.42588 23.9999C4.86525 23.4405 5.2939 22.8894 5.72524 22.3382C5.81365 22.2318 5.86991 22.0981 5.97975 22.0081C6.178 21.9862 6.18068 22.2018 6.29588 22.2782C6.61737 22.7148 6.93887 23.1513 7.26036 23.5879C7.37556 23.7052 7.40771 23.8962 7.59256 23.9862C7.67562 23.8007 7.68097 23.6206 7.68365 23.4378C7.69705 22.8976 7.64615 22.3546 7.71312 21.8143C7.71312 21.1186 7.69973 20.4228 7.71848 19.727C7.72652 19.4569 7.63275 19.4023 7.38895 19.4051C6.38429 19.4133 5.37963 19.4051 4.37765 19.4023C4.37229 20.9112 4.36694 22.4201 4.36426 23.9317C4.36426 23.9535 4.39909 23.9753 4.4232 24.0053L4.42588 23.9999Z" fill="#023020"/>
<path d="M5.97168 10.2915C5.97436 10.5343 6.10295 10.6599 6.33068 10.6544C6.56912 10.6517 6.72183 10.488 6.70843 10.2615C6.69236 10.0514 6.56108 9.88769 6.29853 9.90679C6.04937 9.92316 5.97168 10.0705 5.97168 10.2915Z" fill="#023020"/>
</g>
<defs>
<clipPath id="clip0_8918_4485">
<rect width="92" height="24" fill="white"/>
</clipPath>
</defs>
</svg>
