<?xml version="1.0" encoding="UTF-8"?>
<svg id="Layer_2" data-name="Layer 2" xmlns="http://www.w3.org/2000/svg" version="1.1" viewBox="0 0 200 200">
  <defs>
    <style>
      .cls-1 {
        fill: #6dc17e;
      }

      .cls-1, .cls-2 {
        stroke-width: 0px;
      }

      .cls-2 {
        fill: #053020;
      }
    </style>
  </defs>
  <g id="Layer_1-2" data-name="Layer 1-2">
    <rect class="cls-2" width="200" height="200" rx="37.7" ry="37.7"/>
    <g>
      <path class="cls-1" d="M117.1,89.4c-1.5-1.2-3.2-2.3-4.6-3.6-.9-.8-1.8-1.7-2.3-2.7-2.4-4.4-6.6-6.9-11.4-6.5-4.2.4-8.3,4-9.5,8.5-.3.9-.2,2-.2,3,0,17.8,0,35.6,0,53.4s0,2.8-2.8,2.8c-7.4,0-14.8,0-22.2,0-2,0-2.5-.6-2.5-2.6,0-37.6,0-75.2,0-112.7,0-1.8.4-2.5,2.4-2.5,7.6.1,15.2,0,22.8,0,1.7,0,2.4.5,2.3,2.3,0,6.3,0,12.6,0,18.9,0,.8,0,1.7.1,2.4,4-.3,7.7-1,11.4-1,16,0,30.3,10.5,35.8,25.2,1.7,4.6,2.3,9.4,2.3,14.3,0,17.6,0,35.3,0,52.9,0,2-.5,2.7-2.6,2.7-7.2-.1-14.5,0-21.7,0-.6,0-1.3,0-2.2-.1,1.4-2.4,2.9-4.6,3.9-7,6.5-14.3,5.5-27.9-3.7-40.7-1.7-2.4-1.6-3.3,1-4.7,1.1-.6,2.3-1.2,3.4-1.8.1,0,.2-.2.4-.6h0Z"/>
      <path class="cls-1" d="M100,160.1c-3.6,4.5-6.9,8.7-10.6,13.4v-2.9c0-7.8,0-15.6,0-23.4,0-1.6.4-2.3,2.2-2.2,5.7,0,11.3,0,17,0,1,0,2.1,0,2.1,1.5,0,8.6,0,17.3,0,25.9-.3.1-.6.2-1,.3-3.1-4.1-6.2-8.1-9.6-12.6h0Z"/>
      <path class="cls-1" d="M99.4,87.2c.5-1.8,1.2-2.8,2.5-2.4.8.2,2,1.4,1.9,2-.2.8-1.2,2-2,2.1-.7,0-1.6-1.1-2.4-1.7h0Z"/>
    </g>
  </g>
  <g id="Layer_1-2-2" data-name="Layer 1-2">
    <rect class="cls-2" x="441" width="200" height="200" rx="37.7" ry="37.7"/>
    <g>
      <path class="cls-1" d="M558.1,89.4c-1.5-1.2-3.2-2.3-4.6-3.6-.9-.8-1.8-1.7-2.3-2.7-2.4-4.4-6.6-6.9-11.4-6.5-4.2.4-8.3,4-9.5,8.5-.3.9-.2,2-.2,3,0,17.8,0,35.6,0,53.4s0,2.8-2.8,2.8c-7.4,0-14.8,0-22.2,0-2,0-2.5-.6-2.5-2.6,0-37.6,0-75.2,0-112.7,0-1.8.4-2.5,2.4-2.5,7.6.1,15.2,0,22.8,0,1.7,0,2.4.5,2.3,2.3,0,6.3,0,12.6,0,18.9,0,.8,0,1.7.1,2.4,4-.3,7.7-1,11.4-1,16,0,30.3,10.5,35.8,25.2,1.7,4.6,2.3,9.4,2.3,14.3,0,17.6,0,35.3,0,52.9,0,2-.5,2.7-2.6,2.7-7.2-.1-14.5,0-21.7,0-.6,0-1.3,0-2.2-.1,1.4-2.4,2.9-4.6,3.9-7,6.5-14.3,5.5-27.9-3.7-40.7-1.7-2.4-1.6-3.3,1-4.7,1.1-.6,2.3-1.2,3.4-1.8.1,0,.2-.2.4-.6h0Z"/>
      <path class="cls-1" d="M541,160.1c-3.6,4.5-6.9,8.7-10.6,13.4v-2.9c0-7.8,0-15.6,0-23.4,0-1.6.4-2.3,2.2-2.2,5.7,0,11.3,0,17,0,1,0,2.1,0,2.1,1.5,0,8.6,0,17.3,0,25.9-.3.1-.6.2-1,.3-3.1-4.1-6.2-8.1-9.6-12.6h0Z"/>
      <path class="cls-1" d="M540.4,87.2c.5-1.8,1.2-2.8,2.5-2.4.8.2,2,1.4,1.9,2-.2.8-1.2,2-2,2.1-.7,0-1.6-1.1-2.4-1.7h0Z"/>
    </g>
  </g>
</svg>