<svg width="49" height="44" viewBox="0 0 49 44" fill="none" xmlns="http://www.w3.org/2000/svg">
<path d="M45.3348 15.7913C45.2493 15.7058 45.1624 15.6224 45.0747 15.5399V12.8379C45.0747 10.1511 42.8888 7.96527 40.2021 7.96527H31.655V5.51652C31.655 2.9022 29.5281 0.775391 26.9138 0.775391H18.9111C16.2968 0.775391 14.1699 2.9022 14.1699 5.51652V7.96527H5.62266C2.93587 7.96527 0.75 10.1511 0.75 12.8379V34.5271C0.75 37.2139 2.93587 39.3997 5.62266 39.3997H15.796C16.1843 39.3997 16.4992 39.0849 16.4992 38.6966C16.4992 38.3083 16.1843 37.9935 15.796 37.9935H5.62266C3.71119 37.9935 2.15616 36.4385 2.15616 34.527V20.3426C3.53297 22.3849 5.79778 23.7811 8.39231 23.9734V26.5333C8.39231 27.9953 9.58181 29.1848 11.0438 29.1848C12.506 29.1848 13.6955 27.9953 13.6955 26.5333V23.9963H25.4451C25.4451 24.0076 25.4447 24.0187 25.4447 24.03C25.4447 26.4243 26.1627 28.7079 27.4957 30.6363L26.003 32.129C25.4817 31.9815 24.8977 32.1117 24.4882 32.5213L18.7546 38.255C17.6197 39.3899 17.6197 41.2366 18.7546 42.3715C19.8922 43.5091 21.7335 43.5093 22.8712 42.3715L28.6048 36.6379C29.0143 36.2284 29.1446 35.6444 28.9972 35.1231L30.4912 33.6291C34.4421 36.3502 39.7086 36.3589 43.6687 33.6512V34.5271C43.6687 36.4385 42.1136 37.9936 40.2022 37.9936H29.0962C28.7078 37.9936 28.393 38.3084 28.393 38.6967C28.393 39.085 28.7078 39.3998 29.0962 39.3998H40.2021C42.8888 39.3998 45.0747 37.214 45.0747 34.5272V32.5203C45.1623 32.438 45.2492 32.3545 45.3348 32.2689C49.8881 27.7156 49.8887 20.3452 45.3348 15.7913ZM15.576 5.51652C15.576 3.67761 17.0721 2.18155 18.911 2.18155H26.9137C28.7527 2.18155 30.2487 3.67761 30.2487 5.51652V7.96527H28.7488V5.51652C28.7488 4.50467 27.9256 3.68145 26.9137 3.68145H18.911C17.8991 3.68145 17.0759 4.50467 17.0759 5.51652V7.96527H15.576V5.51652ZM18.4821 7.96527V5.51652C18.4821 5.28008 18.6744 5.0877 18.911 5.0877H26.9137C27.1503 5.0877 27.3427 5.28008 27.3427 5.51652V7.96527H18.4821ZM12.2893 24.3722H9.79856V22.0052C9.79856 21.3185 10.3572 20.7598 11.0439 20.7598C11.7307 20.7598 12.2893 21.3185 12.2893 22.0052V24.3722ZM11.0439 27.7788C10.3572 27.7788 9.79856 27.2201 9.79856 26.5334V25.7783H12.2893V26.5334C12.2893 27.2201 11.7307 27.7788 11.0439 27.7788ZM13.6955 22.5903V22.0052C13.6955 20.5431 12.506 19.3536 11.0438 19.3536C9.58181 19.3536 8.39231 20.5431 8.39231 22.0052V22.5612C4.90172 22.2485 2.15616 19.3085 2.15616 15.7379V12.8379C2.15616 10.9265 3.71119 9.37142 5.62266 9.37142H40.2021C42.1135 9.37142 43.6686 10.9265 43.6686 12.8379V14.4065C39.2225 11.3561 32.9596 11.6888 28.8573 15.7912C26.9996 17.6488 25.8466 20.0232 25.5322 22.5902H13.6955V22.5903ZM21.8768 41.3773C21.2887 41.9653 20.3369 41.9654 19.7488 41.3773C19.4646 41.0931 19.3081 40.7152 19.3081 40.3133C19.3081 39.9114 19.4646 39.5335 19.7488 39.2494L23.7209 35.2773L25.8488 37.4052L21.8768 41.3773ZM27.6104 35.6436L26.8432 36.4109L24.7152 34.283L25.4825 33.5157C25.5095 33.4888 25.5448 33.4753 25.5802 33.4753C25.6155 33.4753 25.6508 33.4888 25.6777 33.5156C25.6779 33.5157 25.678 33.5159 25.6782 33.516L27.6104 35.4482C27.6642 35.5021 27.6642 35.5897 27.6104 35.6436ZM28.1412 33.9904L27.1357 32.9848L28.3701 31.7504C28.5268 31.9271 28.6888 32.1004 28.8573 32.2687C29.0261 32.4376 29.1994 32.5994 29.3758 32.7557L28.1412 33.9904ZM29.8516 31.2745C27.9165 29.3395 26.8508 26.7666 26.8508 24.0301C26.8508 21.2935 27.9165 18.7206 29.8516 16.7856C33.8553 12.7819 40.3362 12.7813 44.3405 16.7856C48.3442 20.7893 48.3448 27.2703 44.3405 31.2745C40.3366 35.2784 33.8558 35.2789 29.8516 31.2745Z" fill="white"/>
<path d="M44.8095 24.9951C44.4301 24.9126 44.0555 25.1532 43.9731 25.5328C43.6869 26.8485 43.0299 28.0498 42.0729 29.0067C39.3222 31.7573 34.8699 31.7576 32.1189 29.0067C29.3746 26.2623 29.3746 21.797 32.1189 19.0527C34.8697 16.302 39.3219 16.3017 42.0729 19.0527C43.0289 20.0086 43.6857 21.2086 43.9723 22.5229C44.055 22.9023 44.4297 23.1432 44.809 23.0601C45.1884 22.9774 45.4289 22.6028 45.3462 22.2234C45.0022 20.6454 44.2141 19.2052 43.0673 18.0584C39.7671 14.7581 34.4254 14.7577 31.1247 18.0584C27.8321 21.351 27.8321 26.7084 31.1247 30.001C34.4172 33.2935 39.7746 33.2937 43.0673 30.001C44.2153 28.853 45.0037 27.4112 45.3472 25.8315C45.4296 25.4521 45.1889 25.0777 44.8095 24.9951Z" fill="white"/>
</svg>
