<svg width="48" height="48" viewBox="0 0 48 48" fill="none" xmlns="http://www.w3.org/2000/svg">
<path d="M42.4988 18.2539H30.3749C29.9866 18.2539 29.6719 18.5687 29.6719 18.9569C29.6719 19.3452 29.9867 19.66 30.3749 19.66H42.4989C42.8873 19.66 43.202 19.3452 43.202 18.9569C43.202 18.5687 42.8872 18.2539 42.4988 18.2539Z" fill="#212121"/>
<path d="M42.4988 22.4927H30.3749C29.9866 22.4927 29.6719 22.8075 29.6719 23.1957C29.6719 23.5839 29.9867 23.8987 30.3749 23.8987H42.4989C42.8873 23.8987 43.202 23.5839 43.202 23.1957C43.202 22.8075 42.8872 22.4927 42.4988 22.4927Z" fill="#212121"/>
<path d="M43.202 27.4345C43.202 27.0462 42.8872 26.7314 42.4989 26.7314H30.3749C29.9866 26.7314 29.6719 27.0463 29.6719 27.4345C29.6719 27.8227 29.9867 28.1375 30.3749 28.1375H42.4989C42.8872 28.1376 43.202 27.8228 43.202 27.4345Z" fill="#212121"/>
<path d="M30.3749 30.9702C29.9866 30.9702 29.6719 31.285 29.6719 31.6732C29.6719 32.0615 29.9867 32.3763 30.3749 32.3763H36.4369C36.8252 32.3763 37.1399 32.0615 37.1399 31.6732C37.1399 31.285 36.8251 30.9702 36.4369 30.9702H30.3749Z" fill="#212121"/>
<path d="M46.7454 8.26791L39.4965 1.01906C38.8525 0.374531 37.97 0 37.0365 0H13.1829C11.2648 0 9.70429 1.56056 9.70429 3.47869V10.6769C9.70429 11.0652 10.0191 11.3799 10.4073 11.3799C10.7955 11.3799 11.1104 11.0651 11.1104 10.6769V3.47869C11.1104 2.33588 12.0401 1.40616 13.1829 1.40616H37.0365C37.1882 1.40616 37.3374 1.42238 37.4832 1.45453V7.85728C37.4832 9.19378 38.5705 10.2811 39.907 10.2811H46.309C46.3414 10.4278 46.358 10.5781 46.358 10.7277V44.5214C46.358 45.6641 45.4283 46.5939 44.2855 46.5939H34.8404C35.6624 45.3648 35.5316 43.6825 34.4471 42.598L28.0547 36.2057C27.5892 35.7401 26.9114 35.6151 26.3301 35.8271L24.9539 34.4509C28.8366 29.0591 28.2641 21.5991 23.5156 16.8505C18.2457 11.5807 9.5991 11.4757 4.22432 16.8505C-1.0943 22.1692 -1.0943 30.8232 4.22432 36.1418C8.96863 40.8862 16.4358 41.4502 21.8242 37.5796L23.2009 38.9563C22.9888 39.5377 23.1139 40.2154 23.5796 40.6809L29.4926 46.5939H13.1829C12.0402 46.5939 11.1104 45.6642 11.1104 44.5214V42.2681C11.1104 41.8798 10.7955 41.5651 10.4073 41.5651C10.0191 41.5651 9.70429 41.8799 9.70429 42.2681V44.5214C9.70429 46.4395 11.2649 48 13.1829 48H44.2856C46.2037 48 47.7643 46.4394 47.7643 44.5214V10.7277C47.7643 9.81534 47.4022 8.92425 46.7454 8.26791ZM5.21873 35.1475C0.448352 30.3772 0.448352 22.6152 5.21873 17.8447C10.0499 13.0136 17.8037 13.1271 22.5215 17.8447C26.9141 22.2374 27.3233 29.2166 23.4733 34.0791C22.8823 34.8254 22.2002 35.5077 21.453 36.0993C16.6216 39.9246 9.62526 39.5541 5.21873 35.1475ZM22.9315 36.6929C23.3291 36.339 23.7083 35.9605 24.0693 35.5549L25.2271 36.7127L24.0865 37.8533L22.9288 36.6955C22.9297 36.6946 22.9305 36.6937 22.9315 36.6929ZM30.9661 46.0789L24.5739 39.6866C24.4823 39.595 24.4821 39.4463 24.5739 39.3544L24.5832 39.3451C24.5834 39.3449 24.5835 39.3448 24.5836 39.3446L26.7284 37.1999C26.8199 37.1083 26.969 37.1083 27.0606 37.1999L33.4529 43.5923C34.1384 44.2778 34.1384 45.3933 33.4529 46.0789C32.7656 46.7661 31.6534 46.7661 30.9661 46.0789ZM38.8893 7.85728V2.40037L45.3639 8.87494H39.9071C39.3458 8.87494 38.8893 8.41838 38.8893 7.85728Z" fill="#212121"/>
<path d="M29.566 4.5625H15.6172C14.7834 4.5625 14.105 5.24088 14.105 6.07469V8.76934C14.105 9.60316 14.7834 10.2815 15.6172 10.2815H29.566C30.3998 10.2815 31.0781 9.60316 31.0781 8.76934V6.07469C31.078 5.24088 30.3997 4.5625 29.566 4.5625ZM29.6719 8.76925C29.6719 8.82766 29.6244 8.87528 29.5659 8.87528H15.6172C15.5588 8.87528 15.5111 8.82775 15.5111 8.76925V6.07469C15.5111 6.01628 15.5587 5.96866 15.6172 5.96866H29.566C29.6244 5.96866 29.672 6.01619 29.672 6.07469L29.6719 8.76925Z" fill="#212121"/>
<path d="M21.5332 34.1593C25.7587 29.9339 25.7587 23.0586 21.5332 18.8332C17.3077 14.6077 10.4325 14.6077 6.20702 18.8332C4.56302 20.4773 3.50871 22.5575 3.15808 24.8491C3.09939 25.2329 3.36283 25.5917 3.74674 25.6504C4.13074 25.7094 4.48933 25.4457 4.54802 25.0618C4.85308 23.0683 5.77052 21.2582 7.20124 19.8274C10.8784 16.1502 16.8616 16.1502 20.5389 19.8274C24.0671 23.3556 24.2094 29.0065 20.967 32.7067C20.6582 32.0783 20.1329 31.5666 19.4459 31.2642C18.6131 30.8975 17.1772 30.6644 16.294 30.548L16.2902 29.6602C17.1437 29.0318 17.7495 28.0834 17.9236 26.9862C18.0737 26.9238 18.2114 26.8317 18.3294 26.7129C18.5648 26.4759 18.6931 26.1615 18.691 25.8277C18.6847 24.8959 18.6855 23.3516 18.6855 22.4519C18.6855 21.6012 18.0656 20.8923 17.2539 20.7533C17.0981 19.9622 16.3991 19.3637 15.563 19.3637H12.169C10.4193 19.3637 8.9958 20.7871 8.9958 22.5368V25.8408C8.9958 26.3537 9.30883 26.7949 9.75386 26.9834C9.92402 28.0472 10.4997 28.9716 11.3126 29.6002L11.3168 30.5689C10.4346 30.6927 9.00077 30.9379 8.1708 31.3116C7.53967 31.5959 7.04646 32.0781 6.74289 32.6718C5.61883 31.3779 4.87455 29.818 4.57942 28.1217C4.51286 27.7392 4.14874 27.4829 3.76624 27.5495C3.38364 27.6161 3.12752 27.9802 3.19408 28.3627C3.57771 30.5671 4.61955 32.5715 6.20711 34.1592C10.4511 38.4034 17.3264 38.3663 21.5332 34.1593ZM12.169 20.77H15.563C15.7379 20.77 15.8802 20.9123 15.8802 21.0872C15.8802 21.6649 16.3502 22.1349 16.9279 22.1349H16.9623C17.1372 22.1349 17.2796 22.2772 17.2796 22.4521V22.8295L16.4297 22.7498C15.5972 22.6719 14.7458 22.8693 14.0325 23.3061C13.6413 23.5456 13.192 23.6723 12.7333 23.6723H10.4021V22.5371C10.402 21.5626 11.1946 20.77 12.169 20.77ZM10.402 25.6907V25.0782H12.7332C13.4514 25.0782 14.1545 24.88 14.7669 24.505C15.2225 24.2259 15.7664 24.0997 16.2983 24.1496L17.2798 24.2416C17.2804 24.6747 17.2815 25.246 17.284 25.6881C16.8926 25.7568 16.588 26.0867 16.5641 26.4955C16.4803 27.933 15.2841 29.0591 13.8407 29.0591C12.4003 29.0591 11.2023 27.934 11.1131 26.4975C11.088 26.0927 10.7881 25.7649 10.402 25.6907ZM13.8407 30.4652C14.2017 30.4652 14.5523 30.4178 14.887 30.3303L14.8886 30.7224C14.8894 30.9043 14.9311 31.0778 15.005 31.2338C14.6554 31.4697 14.2413 31.5998 13.8071 31.6011C13.805 31.6011 13.8028 31.6011 13.8007 31.6011C13.3706 31.6011 12.9596 31.4744 12.6112 31.2435C12.6837 31.0869 12.7244 30.9132 12.7237 30.7314L12.7219 30.311C13.0783 30.4114 13.4537 30.4652 13.8407 30.4652ZM7.8438 33.7505C7.94589 33.2361 8.2743 32.8074 8.74811 32.5938C9.22643 32.3785 10.1477 32.1622 11.308 31.9908C11.9708 32.6413 12.8583 33.0072 13.8004 33.0072H13.8111C14.7602 33.0043 15.6525 32.6307 16.3146 31.9697C17.4763 32.1313 18.3994 32.3398 18.8795 32.5512C19.4175 32.788 19.7653 33.2391 19.8506 33.7888C16.3712 36.6465 11.3091 36.6335 7.8438 33.7505Z" fill="#212121"/>
</svg>
